<svg id="Layer_1" data-name="Layer 1" xmlns="http://www.w3.org/2000/svg" viewBox="0 0 220.41 46.84"><defs><style>.cls-1,.cls-2{fill:none;stroke-miterlimit:10;}.cls-1{stroke:#444545;}.cls-2{stroke:#454546;}.cls-3{fill:#454546;}</style></defs><circle class="cls-1" cx="12.41" cy="6.99" r="6.15"/><path class="cls-1" d="M-60.12,1.72h23.34S-37.51-8.82-48.3-8.82A11.73,11.73,0,0,0-60.12,1.72Z" transform="translate(60.7 22.04)"/><polyline class="cls-1" points="60.59 22.74 66.06 22.74 71.02 41.01"/><polyline class="cls-1" points="67.28 27.22 88.67 27.22 85.77 38.19 70.26 38.19"/><line class="cls-1" x1="74.76" y1="43.61" x2="81.01" y2="43.61"/><circle class="cls-1" cx="71.67" cy="43.61" r="2.71"/><circle class="cls-1" cx="83.66" cy="43.64" r="2.71"/><path class="cls-2" d="M130.21-7.88s-4.48-.58-2.11-3.65c0,0,5.89-11.13,22.2-9.92,0,0,2.5.71,2.31,2.24,0,0,3,.07,3.26,2.63,0,0-.19,2.3-.7,2.3" transform="translate(60.7 22.04)"/><path class="cls-2" d="M152.61-19.21a28.81,28.81,0,0,0-17.41,6.34s-6.65,5.5-6.91,8.89c0,0-1.34,3.59,4.61,3.07,0,0,2.56-.06,2.94-.44" transform="translate(60.7 22.04)"/><path class="cls-2" d="M131.69-15.81a16.82,16.82,0,0,0,3.92,2.42" transform="translate(60.7 22.04)"/><path class="cls-2" d="M133.08-16.94s3.77,2.86,3.81,2.83" transform="translate(60.7 22.04)"/><path class="cls-2" d="M137-19.21a11.09,11.09,0,0,0,3.11,2.88" transform="translate(60.7 22.04)"/><line class="cls-2" x1="199.3" y1="2.09" x2="202.56" y2="5.1"/><path class="cls-2" d="M142.53-21s2.77,2.49,3.81,2.6" transform="translate(60.7 22.04)"/><path class="cls-2" d="M144.86-21.39s3.26,2.36,3.39,2.6" transform="translate(60.7 22.04)"/><path class="cls-2" d="M146.64-18.45a23.41,23.41,0,0,0,4.29,2.64s.55,1.51-2.78.68c0,0-4.24-2-4.26-2.5" transform="translate(60.7 22.04)"/><path class="cls-2" d="M139.65-15.77s3.68,2.73,3.88,2.82" transform="translate(60.7 22.04)"/><path class="cls-2" d="M137.75-14.6s2,1.52,4,2.73" transform="translate(60.7 22.04)"/><line class="cls-2" x1="194.41" y1="10.5" x2="196.13" y2="11.5"/><line class="cls-2" x1="193.04" y1="12.01" x2="194.9" y2="12.93"/><path class="cls-2" d="M142.3.06l-4.69,1.3a2.35,2.35,0,0,1-1.19-1.77s-.48-2.71-1.15-3c0,0-2.25-.51-1.62-4,0,0,1.18-5.86,7.56-4.09a5.94,5.94,0,0,1,6.85-.77s4.17-4.24,8.63-.82c0,0,3.25,2,2.37,7.05a3.84,3.84,0,0,1-1.42,1.48,2.73,2.73,0,0,0-1.19,2.25s-.6,3.36-1.83,3.47c0,0-7.78-2.21-7.89-2.3l-.11-.09s-1-.31-.25-2.6c0,0,1.2-2.54.78-3.87,0,0-1.52-1.23.84-4.41" transform="translate(60.7 22.04)"/><path class="cls-2" d="M141.1-11.31A5.9,5.9,0,0,0,139.65-5s-.16.53,1.78,1.83L143,1.36a1.35,1.35,0,0,0,1.5.35L150.35-.1" transform="translate(60.7 22.04)"/><circle class="cls-3" cx="202.62" cy="14.33" r="0.17"/><circle class="cls-3" cx="205.4" cy="20.83" r="0.17"/><circle class="cls-3" cx="215.27" cy="12.03" r="0.17"/><circle class="cls-3" cx="214.84" cy="17.14" r="0.17"/><circle class="cls-3" cx="204.59" cy="14.33" r="0.17"/><circle class="cls-3" cx="197.85" cy="15.49" r="0.17"/><circle class="cls-3" cx="199.13" cy="21.18" r="0.17"/><circle class="cls-3" cx="203.7" cy="17.84" r="0.17"/><circle class="cls-3" cx="214.84" cy="21" r="0.17"/><ellipse class="cls-3" cx="205.21" cy="12.01" rx="0.07" ry="0.15"/><ellipse class="cls-3" cx="205.06" cy="16.52" rx="0.07" ry="0.15"/><circle class="cls-3" cx="209.93" cy="16.67" r="0.15"/><ellipse class="cls-3" cx="212.54" cy="14.67" rx="0.07" ry="0.15"/><ellipse class="cls-3" cx="212.39" cy="19.18" rx="0.07" ry="0.15"/><ellipse class="cls-3" cx="212.89" cy="10.73" rx="0.07" ry="0.15"/><ellipse class="cls-3" cx="216.5" cy="14.65" rx="0.07" ry="0.15"/><ellipse class="cls-3" cx="196.09" cy="16.82" rx="0.07" ry="0.15"/><ellipse class="cls-3" cx="211.59" cy="16.37" rx="0.07" ry="0.15"/><ellipse class="cls-3" cx="197.67" cy="13.23" rx="0.07" ry="0.15"/><ellipse class="cls-3" cx="200.04" cy="19.18" rx="0.07" ry="0.15"/></svg>