<svg id="Layer_1" data-name="Layer 1" xmlns="http://www.w3.org/2000/svg" viewBox="0 0 24.59 24.95"><defs><style>.cls-1{fill:none;stroke:#454546;stroke-miterlimit:10;}</style></defs><path class="cls-1" d="M12.08,9.75s-10.59.59-11,3.94c0,0-1.86,4.75,3.36,5.51a4.74,4.74,0,0,0,3.79-1.93S11,10.45,11.94,10c0,0,.66,0,1.78,0a31.56,31.56,0,0,1,8.46,1.79s4,2.16,1.11,6.48a4.26,4.26,0,0,1-5.64-.35,38.86,38.86,0,0,1-3.89-7.7" transform="translate(-0.25 -0.46)"/><path class="cls-1" d="M10.22,9.75S8,7.8,10.37,5.34a3.39,3.39,0,0,1,4.51,0,3.64,3.64,0,0,1,.25,4.41" transform="translate(-0.25 -0.46)"/><path class="cls-1" d="M7.88,17.72s.12,6.11,4.6,7.19c0,0,4,.22,4.72-7.19" transform="translate(-0.25 -0.46)"/><path class="cls-1" d="M8.61,17.92s3.47-3.26,7.93,0" transform="translate(-0.25 -0.46)"/><path class="cls-1" d="M8.75,21.12s3.47-3.27,7.92,0" transform="translate(-0.25 -0.46)"/><path class="cls-1" d="M9.62,14.06a6,6,0,0,1,5.84,0" transform="translate(-0.25 -0.46)"/><path class="cls-1" d="M12,4.54a3.45,3.45,0,0,0-1.59-2.67" transform="translate(-0.25 -0.46)"/><path class="cls-1" d="M13.45,4.46a2.88,2.88,0,0,1,1.12-2.59" transform="translate(-0.25 -0.46)"/><ellipse class="cls-1" cx="9.42" cy="1.19" rx="0.73" ry="0.69"/><ellipse class="cls-1" cx="15.21" cy="1.19" rx="0.73" ry="0.69"/><path class="cls-1" d="M19.72,12.36A3.81,3.81,0,0,1,23,15.5" transform="translate(-0.25 -0.46)"/><path class="cls-1" d="M2.15,15.5S2,13.39,5.1,12.36" transform="translate(-0.25 -0.46)"/></svg>