<svg id="Layer_1" data-name="Layer 1" xmlns="http://www.w3.org/2000/svg" viewBox="0 0 89.08 43.71"><defs><style>.cls-1,.cls-2{fill:none;stroke-miterlimit:10;}.cls-1{stroke:#444545;}.cls-2{stroke:#454546;}.cls-3{fill:#454546;}</style></defs><circle class="cls-1" cx="12.41" cy="6.65" r="6.15"/><path class="cls-1" d="M-60.12,1.23h23.34S-37.51-9.32-48.3-9.32A11.73,11.73,0,0,0-60.12,1.23Z" transform="translate(60.7 22.2)"/><path class="cls-2" d="M2.87,12.67S-1,12.17,1.05,9.52c0,0,5.08-9.6,19.15-8.55,0,0,2.15.61,2,1.93,0,0,2.6.06,2.82,2.26,0,0-.17,2-.61,2" transform="translate(60.7 22.2)"/><path class="cls-2" d="M22.18,2.9a24.84,24.84,0,0,0-15,5.46s-5.74,4.75-6,7.68c0,0-1.16,3.09,4,2.64a7.92,7.92,0,0,0,2.54-.38" transform="translate(60.7 22.2)"/><path class="cls-2" d="M4.15,5.83A14.76,14.76,0,0,0,7.52,7.92" transform="translate(60.7 22.2)"/><path class="cls-2" d="M5.34,4.86S8.6,7.32,8.63,7.3" transform="translate(60.7 22.2)"/><path class="cls-2" d="M8.76,2.9a9.52,9.52,0,0,0,2.69,2.49" transform="translate(60.7 22.2)"/><line class="cls-2" x1="70.81" y1="24.46" x2="73.62" y2="27.05"/><path class="cls-2" d="M13.49,1.31s2.39,2.15,3.29,2.25" transform="translate(60.7 22.2)"/><path class="cls-2" d="M15.51,1s2.81,2,2.91,2.24" transform="translate(60.7 22.2)"/><path class="cls-2" d="M17,3.56a20.31,20.31,0,0,0,3.7,2.27s.47,1.31-2.4.58c0,0-3.66-1.73-3.68-2.15" transform="translate(60.7 22.2)"/><path class="cls-2" d="M11,5.86s3.18,2.36,3.35,2.44" transform="translate(60.7 22.2)"/><path class="cls-2" d="M9.37,6.88s1.73,1.31,3.45,2.35" transform="translate(60.7 22.2)"/><line class="cls-2" x1="66.59" y1="31.71" x2="68.07" y2="32.57"/><line class="cls-2" x1="65.41" y1="33.01" x2="67.01" y2="33.81"/><path class="cls-2" d="M13.29,19.52l-4,1.12a2,2,0,0,1-1-1.52s-.42-2.35-1-2.61c0,0-1.95-.44-1.4-3.47,0,0,1-5.06,6.52-3.53a5.12,5.12,0,0,1,5.9-.66s3.6-3.65,7.45-.7c0,0,2.8,1.71,2,6.07a3.29,3.29,0,0,1-1.22,1.28,2.36,2.36,0,0,0-1,1.94s-.51,2.89-1.58,3c0,0-6.7-1.9-6.8-2l-.1-.08s-.85-.26-.21-2.24c0,0,1-2.19.67-3.34,0,0-1.31-1.06.73-3.81" transform="translate(60.7 22.2)"/><path class="cls-2" d="M12.26,9.71A5.09,5.09,0,0,0,11,15.12s-.14.45,1.54,1.58l1.33,3.94a1.17,1.17,0,0,0,1.3.3l5.06-1.56" transform="translate(60.7 22.2)"/><circle class="cls-3" cx="73.67" cy="35.02" r="0.15"/><circle class="cls-3" cx="76.06" cy="40.62" r="0.15"/><circle class="cls-3" cx="84.58" cy="33.03" r="0.15"/><circle class="cls-3" cx="84.2" cy="37.44" r="0.15"/><circle class="cls-3" cx="75.37" cy="35.02" r="0.15"/><circle class="cls-3" cx="69.56" cy="36.02" r="0.15"/><circle class="cls-3" cx="70.66" cy="40.93" r="0.15"/><circle class="cls-3" cx="74.6" cy="38.04" r="0.15"/><circle class="cls-3" cx="84.2" cy="40.77" r="0.15"/><ellipse class="cls-3" cx="75.9" cy="33.01" rx="0.06" ry="0.13"/><ellipse class="cls-3" cx="75.78" cy="36.9" rx="0.06" ry="0.13"/><circle class="cls-3" cx="79.97" cy="37.04" r="0.13"/><ellipse class="cls-3" cx="82.23" cy="35.31" rx="0.06" ry="0.13"/><ellipse class="cls-3" cx="82.1" cy="39.2" rx="0.06" ry="0.13"/><ellipse class="cls-3" cx="82.53" cy="31.91" rx="0.06" ry="0.13"/><ellipse class="cls-3" cx="85.64" cy="35.29" rx="0.06" ry="0.13"/><ellipse class="cls-3" cx="68.04" cy="37.16" rx="0.06" ry="0.13"/><ellipse class="cls-3" cx="81.41" cy="36.77" rx="0.06" ry="0.13"/><ellipse class="cls-3" cx="69.4" cy="34.07" rx="0.06" ry="0.13"/><ellipse class="cls-3" cx="71.45" cy="39.2" rx="0.06" ry="0.13"/></svg>