<svg id="Layer_1" data-name="Layer 1" xmlns="http://www.w3.org/2000/svg" viewBox="0 0 220.41 46.66"><defs><style>.cls-1,.cls-2{fill:none;stroke-miterlimit:10;}.cls-1{stroke:#444545;}.cls-2{stroke:#454546;}.cls-3{fill:#454546;}</style></defs><circle class="cls-1" cx="12.41" cy="7.09" r="6.15"/><path class="cls-1" d="M-60.12,1.23h23.34S-37.51-9.32-48.3-9.32A11.73,11.73,0,0,0-60.12,1.23Z" transform="translate(60.7 22.64)"/><path class="cls-1" d="M7.82.72a7,7,0,0,1,4.91,1.8,7.39,7.39,0,0,1,.88.89c.13.15.19.14.32,0a8.38,8.38,0,0,1,2.18-1.8,7.31,7.31,0,0,1,8.52,1.1,7.5,7.5,0,0,1,2.47,6.1A7.62,7.62,0,0,1,25.39,13,27,27,0,0,1,21,17.45c-1.65,1.39-3.37,2.7-5,4.15a19.51,19.51,0,0,0-1.57,1.58.78.78,0,0,1-1.26,0A46.77,46.77,0,0,0,8,18.63a48.17,48.17,0,0,1-4.59-4.1A11,11,0,0,1,.9,10.82a7.1,7.1,0,0,1,.66-6.39,7.54,7.54,0,0,1,5-3.57A7.24,7.24,0,0,1,7.82.72Z" transform="translate(60.7 22.64)"/><polyline class="cls-1" points="140.2 0.5 145.68 0.5 150.64 18.77"/><polyline class="cls-1" points="146.89 4.98 168.29 4.98 165.39 15.95 149.87 15.95"/><line class="cls-1" x1="154.38" y1="21.37" x2="160.62" y2="21.37"/><circle class="cls-1" cx="151.28" cy="21.37" r="2.71"/><circle class="cls-1" cx="163.28" cy="21.4" r="2.71"/><path class="cls-2" d="M130.21-8.38s-4.48-.57-2.11-3.65c0,0,5.89-11.13,22.2-9.91,0,0,2.5.7,2.31,2.24,0,0,3,.06,3.26,2.62,0,0-.19,2.3-.7,2.3" transform="translate(60.7 22.64)"/><path class="cls-2" d="M152.61-19.7a28.76,28.76,0,0,0-17.41,6.33s-6.65,5.5-6.91,8.89c0,0-1.34,3.59,4.61,3.08,0,0,2.56-.07,2.94-.45" transform="translate(60.7 22.64)"/><path class="cls-2" d="M131.69-16.31a16.47,16.47,0,0,0,3.92,2.42" transform="translate(60.7 22.64)"/><path class="cls-2" d="M133.08-17.44s3.77,2.86,3.81,2.83" transform="translate(60.7 22.64)"/><path class="cls-2" d="M137-19.71a11.2,11.2,0,0,0,3.11,2.89" transform="translate(60.7 22.64)"/><line class="cls-2" x1="199.3" y1="2.2" x2="202.56" y2="5.2"/><path class="cls-2" d="M142.53-21.55s2.77,2.5,3.81,2.61" transform="translate(60.7 22.64)"/><path class="cls-2" d="M144.86-21.89s3.26,2.37,3.39,2.6" transform="translate(60.7 22.64)"/><path class="cls-2" d="M146.64-18.94a23.51,23.51,0,0,0,4.29,2.63s.55,1.52-2.78.68c0,0-4.24-2-4.26-2.5" transform="translate(60.7 22.64)"/><path class="cls-2" d="M139.65-16.27s3.68,2.74,3.88,2.82" transform="translate(60.7 22.64)"/><path class="cls-2" d="M137.75-15.1s2,1.52,4,2.74" transform="translate(60.7 22.64)"/><line class="cls-2" x1="194.41" y1="10.6" x2="196.13" y2="11.6"/><line class="cls-2" x1="193.04" y1="12.11" x2="194.9" y2="13.04"/><path class="cls-2" d="M142.3-.44,137.61.86A2.35,2.35,0,0,1,136.42-.9s-.48-2.72-1.15-3c0,0-2.25-.51-1.62-4,0,0,1.18-5.86,7.56-4.09a6,6,0,0,1,6.85-.77s4.17-4.24,8.63-.81c0,0,3.25,2,2.37,7a3.84,3.84,0,0,1-1.42,1.48,2.73,2.73,0,0,0-1.19,2.25s-.6,3.36-1.83,3.47c0,0-7.78-2.21-7.89-2.3l-.11-.08s-1-.31-.25-2.61c0,0,1.2-2.54.78-3.86,0,0-1.52-1.24.84-4.42" transform="translate(60.7 22.64)"/><path class="cls-2" d="M141.1-11.81a5.91,5.91,0,0,0-1.45,6.27s-.16.53,1.78,1.83L143,.86a1.36,1.36,0,0,0,1.5.36L150.35-.6" transform="translate(60.7 22.64)"/><circle class="cls-3" cx="202.62" cy="14.44" r="0.17"/><circle class="cls-3" cx="205.4" cy="20.94" r="0.17"/><circle class="cls-3" cx="215.27" cy="12.13" r="0.17"/><circle class="cls-3" cx="214.84" cy="17.24" r="0.17"/><circle class="cls-3" cx="204.59" cy="14.44" r="0.17"/><circle class="cls-3" cx="197.85" cy="15.6" r="0.17"/><circle class="cls-3" cx="199.13" cy="21.29" r="0.17"/><circle class="cls-3" cx="203.7" cy="17.95" r="0.17"/><circle class="cls-3" cx="214.84" cy="21.11" r="0.17"/><ellipse class="cls-3" cx="205.21" cy="12.11" rx="0.07" ry="0.15"/><ellipse class="cls-3" cx="205.06" cy="16.62" rx="0.07" ry="0.15"/><circle class="cls-3" cx="209.93" cy="16.78" r="0.15"/><ellipse class="cls-3" cx="212.54" cy="14.78" rx="0.07" ry="0.15"/><ellipse class="cls-3" cx="212.39" cy="19.29" rx="0.07" ry="0.15"/><ellipse class="cls-3" cx="212.89" cy="10.83" rx="0.07" ry="0.15"/><ellipse class="cls-3" cx="216.5" cy="14.76" rx="0.07" ry="0.15"/><ellipse class="cls-3" cx="196.09" cy="16.92" rx="0.07" ry="0.15"/><ellipse class="cls-3" cx="211.59" cy="16.48" rx="0.07" ry="0.15"/><ellipse class="cls-3" cx="197.67" cy="13.34" rx="0.07" ry="0.15"/><ellipse class="cls-3" cx="200.04" cy="19.29" rx="0.07" ry="0.15"/></svg>