<svg id="Layer_1" data-name="Layer 1" xmlns="http://www.w3.org/2000/svg" viewBox="0 0 220.41 46.77"><defs><style>.cls-1,.cls-2{fill:none;stroke-miterlimit:10;}.cls-1{stroke:#444545;}.cls-2{stroke:#454546;}.cls-3{fill:#454546;}</style></defs><polyline class="cls-1" points="76.84 27.56 73.51 31.31 73.51 46.27 80.42 46.27 80.42 31.45 77.05 27.66 76.81 23.15 66.6 23.15 66.6 26.72 62.85 31.17 62.85 46.27 73.3 46.27"/><line class="cls-1" x1="62.85" y1="31.17" x2="70.56" y2="31.17"/><line class="cls-1" x1="66.6" y1="26.72" x2="76.88" y2="26.72"/><circle class="cls-1" cx="12.41" cy="7.09" r="6.15"/><path class="cls-1" d="M-61.54,1.23H-38.2S-38.93-9.32-49.72-9.32A11.73,11.73,0,0,0-61.54,1.23Z" transform="translate(62.12 22.64)"/><path class="cls-1" d="M41.64-22a7.08,7.08,0,0,1,4.92,1.81,6.72,6.72,0,0,1,.88.89c.12.15.19.14.32,0a8.07,8.07,0,0,1,2.18-1.8A7.3,7.3,0,0,1,58.45-20a7.51,7.51,0,0,1,2.48,6.1,7.69,7.69,0,0,1-1.71,4.21,26.64,26.64,0,0,1-4.45,4.43c-1.64,1.39-3.36,2.7-5,4.15A19.38,19.38,0,0,0,48.25.49.79.79,0,0,1,47,.52a45.78,45.78,0,0,0-5.16-4.58,47,47,0,0,1-4.59-4.1,10.86,10.86,0,0,1-2.5-3.71,7.06,7.06,0,0,1,.66-6.39,7.5,7.5,0,0,1,5-3.57A8.74,8.74,0,0,1,41.64-22Z" transform="translate(62.12 22.64)"/><polyline class="cls-1" points="140.2 0.5 145.68 0.5 150.64 18.77"/><polyline class="cls-1" points="146.89 4.98 168.29 4.98 165.39 15.95 149.87 15.95"/><line class="cls-1" x1="154.38" y1="21.37" x2="160.62" y2="21.37"/><circle class="cls-1" cx="151.28" cy="21.37" r="2.71"/><circle class="cls-1" cx="163.28" cy="21.4" r="2.71"/><path class="cls-2" d="M128.79-8.38s-4.48-.57-2.11-3.65c0,0,5.88-11.13,22.2-9.91,0,0,2.5.7,2.31,2.24,0,0,3,.06,3.26,2.62,0,0-.19,2.3-.7,2.3" transform="translate(62.12 22.64)"/><path class="cls-2" d="M151.19-19.7a28.74,28.74,0,0,0-17.41,6.33s-6.65,5.5-6.91,8.89c0,0-1.34,3.59,4.61,3.08,0,0,2.56-.07,2.94-.45" transform="translate(62.12 22.64)"/><path class="cls-2" d="M130.27-16.31a16.55,16.55,0,0,0,3.91,2.42" transform="translate(62.12 22.64)"/><path class="cls-2" d="M131.66-17.44s3.77,2.86,3.81,2.83" transform="translate(62.12 22.64)"/><path class="cls-2" d="M135.62-19.71a11.2,11.2,0,0,0,3.11,2.89" transform="translate(62.12 22.64)"/><line class="cls-2" x1="199.3" y1="2.2" x2="202.56" y2="5.2"/><path class="cls-2" d="M141.11-21.55s2.77,2.5,3.81,2.61" transform="translate(62.12 22.64)"/><path class="cls-2" d="M143.44-21.89s3.26,2.37,3.38,2.6" transform="translate(62.12 22.64)"/><path class="cls-2" d="M145.22-18.94a23.51,23.51,0,0,0,4.29,2.63s.55,1.52-2.78.68c0,0-4.24-2-4.26-2.5" transform="translate(62.12 22.64)"/><path class="cls-2" d="M138.23-16.27s3.68,2.74,3.88,2.82" transform="translate(62.12 22.64)"/><path class="cls-2" d="M136.33-15.1s2,1.52,4,2.74" transform="translate(62.12 22.64)"/><line class="cls-2" x1="194.41" y1="10.6" x2="196.13" y2="11.6"/><line class="cls-2" x1="193.04" y1="12.11" x2="194.9" y2="13.04"/><path class="cls-2" d="M140.87-.44,136.19.86A2.35,2.35,0,0,1,135-.9s-.48-2.72-1.15-3c0,0-2.25-.51-1.62-4,0,0,1.18-5.86,7.56-4.09a6,6,0,0,1,6.85-.77s4.17-4.24,8.63-.81c0,0,3.25,2,2.36,7a3.77,3.77,0,0,1-1.41,1.48A2.73,2.73,0,0,0,155-2.85S154.43.51,153.2.62c0,0-7.78-2.21-7.89-2.3l-.11-.08s-1-.31-.25-2.61c0,0,1.2-2.54.78-3.86,0,0-1.52-1.24.84-4.42" transform="translate(62.12 22.64)"/><path class="cls-2" d="M139.68-11.81a5.91,5.91,0,0,0-1.45,6.27S138.07-5,140-3.71L141.56.86a1.36,1.36,0,0,0,1.5.36L148.93-.6" transform="translate(62.12 22.64)"/><circle class="cls-3" cx="202.62" cy="14.44" r="0.17"/><circle class="cls-3" cx="205.4" cy="20.94" r="0.17"/><circle class="cls-3" cx="215.27" cy="12.13" r="0.17"/><circle class="cls-3" cx="214.84" cy="17.24" r="0.17"/><circle class="cls-3" cx="204.59" cy="14.44" r="0.17"/><circle class="cls-3" cx="197.85" cy="15.6" r="0.17"/><circle class="cls-3" cx="199.13" cy="21.29" r="0.17"/><circle class="cls-3" cx="203.7" cy="17.95" r="0.17"/><circle class="cls-3" cx="214.84" cy="21.11" r="0.17"/><ellipse class="cls-3" cx="205.21" cy="12.11" rx="0.07" ry="0.15"/><ellipse class="cls-3" cx="205.06" cy="16.62" rx="0.07" ry="0.15"/><circle class="cls-3" cx="209.93" cy="16.78" r="0.15"/><ellipse class="cls-3" cx="212.54" cy="14.78" rx="0.07" ry="0.15"/><ellipse class="cls-3" cx="212.39" cy="19.29" rx="0.07" ry="0.15"/><ellipse class="cls-3" cx="212.89" cy="10.83" rx="0.07" ry="0.15"/><ellipse class="cls-3" cx="216.5" cy="14.76" rx="0.07" ry="0.15"/><ellipse class="cls-3" cx="196.09" cy="16.92" rx="0.07" ry="0.15"/><ellipse class="cls-3" cx="211.59" cy="16.48" rx="0.07" ry="0.15"/><ellipse class="cls-3" cx="197.67" cy="13.34" rx="0.07" ry="0.15"/><ellipse class="cls-3" cx="200.04" cy="19.29" rx="0.07" ry="0.15"/></svg>