<svg id="Layer_1" data-name="Layer 1" xmlns="http://www.w3.org/2000/svg" viewBox="0 0 220.41 45.77"><defs><style>.cls-1,.cls-2{fill:none;stroke-miterlimit:10;}.cls-1{stroke:#444545;}.cls-2{stroke:#454546;}.cls-3{fill:#454546;}</style></defs><polyline class="cls-1" points="54.76 15.35 51.42 19.1 51.42 34.06 58.33 34.06 58.33 19.24 54.96 15.45 54.72 10.94 44.51 10.94 44.51 14.52 40.76 18.96 40.76 34.06 51.22 34.06"/><line class="cls-1" x1="40.76" y1="18.96" x2="48.47" y2="18.96"/><line class="cls-1" x1="44.51" y1="14.52" x2="54.79" y2="14.52"/><circle class="cls-1" cx="12.41" cy="7.09" r="6.15"/><path class="cls-1" d="M-59.48.4h23.34s-.73-10.54-11.52-10.54A11.71,11.71,0,0,0-59.48.4Z" transform="translate(60.06 23.47)"/><path class="cls-1" d="M1.84,11.28A147.23,147.23,0,0,1,24,1" transform="translate(60.06 23.47)"/><path class="cls-1" d="M16.62,3.61s-11.13-5.12-15-2C1.65,1.63,2.15,5.51,16.62,3.61Z" transform="translate(60.06 23.47)"/><line class="cls-1" x1="75.28" y1="26.88" x2="65.74" y2="25.6"/><path class="cls-1" d="M17.12,4.13s.13,13.36,4.23,15.22C21.35,19.35,24.64,17.53,17.12,4.13Z" transform="translate(60.06 23.47)"/><line class="cls-1" x1="77.18" y1="27.6" x2="80.44" y2="39.06"/><path class="cls-1" d="M7.94,8.17s-1.4,2.05-1.21,3.64" transform="translate(60.06 23.47)"/><line class="cls-1" x1="73.85" y1="28.67" x2="73.23" y2="30.99"/><path class="cls-1" d="M9.83,15.48c0,2.24-2.5,5.19-4.48,5.19S2,18.85,1.76,16.62c-.26-3,3.19-6.74,5.35-6.21C9,10.88,9.83,13.24,9.83,15.48Z" transform="translate(60.06 23.47)"/><path class="cls-1" d="M13.16,6.36s-3.49.38-4.3,4.92" transform="translate(60.06 23.47)"/><path class="cls-1" d="M13.78,6.48s4.58,1,1.9,7.64c0,0-2.28,4.23-5.85,1.78" transform="translate(60.06 23.47)"/><path class="cls-1" d="M4.09,18s.19,1.55,2,.81" transform="translate(60.06 23.47)"/><path class="cls-1" d="M10.84,14s.31,1.28,2.07.74" transform="translate(60.06 23.47)"/><path class="cls-1" d="M10.84,16.66s-.53,4.79,1.09,5.14c0,0,2,0,2.18-5.88" transform="translate(60.06 23.47)"/><line class="cls-1" x1="72.49" y1="40.38" x2="72.49" y2="41.47"/><path class="cls-1" d="M43.7-22.8A7.08,7.08,0,0,1,48.62-21a6.65,6.65,0,0,1,.88.88c.12.15.19.15.32,0A8.26,8.26,0,0,1,52-21.91a7.28,7.28,0,0,1,8.51,1.11A7.49,7.49,0,0,1,63-14.71a7.75,7.75,0,0,1-1.71,4.22,27,27,0,0,1-4.45,4.43c-1.64,1.39-3.36,2.69-5,4.14A21.13,21.13,0,0,0,50.31-.34.79.79,0,0,1,49-.3a45.86,45.86,0,0,0-5.16-4.59A48.21,48.21,0,0,1,39.29-9a10.9,10.9,0,0,1-2.5-3.72,7.07,7.07,0,0,1,.66-6.39,7.57,7.57,0,0,1,5-3.57A8.72,8.72,0,0,1,43.7-22.8Z" transform="translate(60.06 23.47)"/><polyline class="cls-1" points="140.2 0.5 145.68 0.5 150.64 18.77"/><polyline class="cls-1" points="146.89 4.98 168.29 4.98 165.39 15.95 149.87 15.95"/><line class="cls-1" x1="154.38" y1="21.37" x2="160.62" y2="21.37"/><circle class="cls-1" cx="151.28" cy="21.37" r="2.71"/><circle class="cls-1" cx="163.28" cy="21.4" r="2.71"/><path class="cls-2" d="M130.85-9.2s-4.48-.58-2.11-3.65c0,0,5.89-11.14,22.2-9.92,0,0,2.5.7,2.31,2.24,0,0,3,.06,3.26,2.62,0,0-.19,2.31-.7,2.31" transform="translate(60.06 23.47)"/><path class="cls-2" d="M153.25-20.53a28.84,28.84,0,0,0-17.41,6.33s-6.65,5.51-6.91,8.9c0,0-1.34,3.58,4.61,3.07,0,0,2.56-.06,2.94-.45" transform="translate(60.06 23.47)"/><path class="cls-2" d="M132.33-17.13a16.9,16.9,0,0,0,3.91,2.42" transform="translate(60.06 23.47)"/><path class="cls-2" d="M133.72-18.26s3.77,2.86,3.81,2.83" transform="translate(60.06 23.47)"/><path class="cls-2" d="M137.68-20.53a11.09,11.09,0,0,0,3.11,2.88" transform="translate(60.06 23.47)"/><line class="cls-2" x1="199.3" y1="2.2" x2="202.56" y2="5.2"/><path class="cls-2" d="M143.17-22.37s2.77,2.49,3.81,2.6" transform="translate(60.06 23.47)"/><path class="cls-2" d="M145.5-22.71s3.26,2.36,3.39,2.6" transform="translate(60.06 23.47)"/><path class="cls-2" d="M147.28-19.77a23.41,23.41,0,0,0,4.29,2.64s.55,1.51-2.78.67c0,0-4.24-2-4.26-2.49" transform="translate(60.06 23.47)"/><path class="cls-2" d="M140.29-17.1s3.68,2.74,3.88,2.83" transform="translate(60.06 23.47)"/><path class="cls-2" d="M138.39-15.92s2,1.52,4,2.73" transform="translate(60.06 23.47)"/><line class="cls-2" x1="194.41" y1="10.6" x2="196.13" y2="11.6"/><line class="cls-2" x1="193.04" y1="12.11" x2="194.9" y2="13.04"/><path class="cls-2" d="M142.94-1.27,138.25,0a2.35,2.35,0,0,1-1.19-1.77s-.48-2.72-1.15-3c0,0-2.25-.51-1.62-4,0,0,1.18-5.87,7.56-4.09a5.94,5.94,0,0,1,6.85-.77s4.17-4.24,8.63-.82c0,0,3.25,2,2.37,7a3.84,3.84,0,0,1-1.42,1.48,2.73,2.73,0,0,0-1.19,2.25s-.6,3.35-1.83,3.46c0,0-7.78-2.2-7.89-2.29l-.11-.09s-1-.31-.25-2.61c0,0,1.2-2.54.78-3.86,0,0-1.52-1.24.84-4.42" transform="translate(60.06 23.47)"/><path class="cls-2" d="M141.74-12.64a5.91,5.91,0,0,0-1.45,6.27s-.16.53,1.78,1.84L143.62,0a1.35,1.35,0,0,0,1.5.35L151-1.43" transform="translate(60.06 23.47)"/><circle class="cls-3" cx="202.62" cy="14.44" r="0.17"/><circle class="cls-3" cx="205.4" cy="20.94" r="0.17"/><circle class="cls-3" cx="215.27" cy="12.13" r="0.17"/><circle class="cls-3" cx="214.84" cy="17.24" r="0.17"/><circle class="cls-3" cx="204.59" cy="14.44" r="0.17"/><circle class="cls-3" cx="197.85" cy="15.6" r="0.17"/><circle class="cls-3" cx="199.13" cy="21.29" r="0.17"/><circle class="cls-3" cx="203.7" cy="17.95" r="0.17"/><circle class="cls-3" cx="214.84" cy="21.11" r="0.17"/><ellipse class="cls-3" cx="205.21" cy="12.11" rx="0.07" ry="0.15"/><ellipse class="cls-3" cx="205.06" cy="16.62" rx="0.07" ry="0.15"/><circle class="cls-3" cx="209.93" cy="16.78" r="0.15"/><ellipse class="cls-3" cx="212.54" cy="14.78" rx="0.07" ry="0.15"/><ellipse class="cls-3" cx="212.39" cy="19.29" rx="0.07" ry="0.15"/><ellipse class="cls-3" cx="212.89" cy="10.83" rx="0.07" ry="0.15"/><ellipse class="cls-3" cx="216.5" cy="14.76" rx="0.07" ry="0.15"/><ellipse class="cls-3" cx="196.09" cy="16.92" rx="0.07" ry="0.15"/><ellipse class="cls-3" cx="211.59" cy="16.48" rx="0.07" ry="0.15"/><ellipse class="cls-3" cx="197.67" cy="13.34" rx="0.07" ry="0.15"/><ellipse class="cls-3" cx="200.04" cy="19.29" rx="0.07" ry="0.15"/></svg>