<svg xmlns="http://www.w3.org/2000/svg" viewBox="0 0 44 44"><defs><style>.cls-1{fill:#111216;}</style></defs><title>phone@1x</title><g id="Layer_2" data-name="Layer 2"><g id="General"><g id="Phone_1_2x.png" data-name="Phone 1@2x.png"><path class="cls-1" d="M44,35h0a3,3,0,0,0-.88-2.12,2.94,2.94,0,0,0-.53-.42l-8.47-6.58A3,3,0,0,0,32,25a3,3,0,0,0-1.8.62L27.82,28h0a2,2,0,0,1-3.12-.18l0,.06a38.2,38.2,0,0,1-8.53-8.5l.07,0A2,2,0,0,1,16,16.13h0l2.35-2.33A2.94,2.94,0,0,0,19,12a3,3,0,0,0-.88-2.12L11.54,1.41a3.06,3.06,0,0,0-.41-.53A3,3,0,0,0,9,0C5,0,0,4.7,0,10.5A10.45,10.45,0,0,0,1,15l0,0A63.52,63.52,0,0,0,29,43l0,0a10.45,10.45,0,0,0,4.48,1C39.3,44,44,39,44,35ZM33.5,42a8.43,8.43,0,0,1-3.63-.82,1.89,1.89,0,0,0-.33-.12A61.34,61.34,0,0,1,2.95,14.47a2,2,0,0,0-.13-.34A8.43,8.43,0,0,1,2,10.5C2,5.65,6.25,2,9,2a1,1,0,0,1,.71.29,1.11,1.11,0,0,1,.14.18l.11.16,6.59,8.47.16.19A1,1,0,0,1,17,12a.93.93,0,0,1-.14.5l-2.23,2.21,0,0a4,4,0,0,0-.17,5.67l.08.12a40.13,40.13,0,0,0,9,8.94l.08.06a4,4,0,0,0,5.57,0l.11-.11,2.24-2.26A.93.93,0,0,1,32,27a1,1,0,0,1,.71.29l.19.17L41.34,34l.17.12a1,1,0,0,1,.18.13A1,1,0,0,1,42,35a2,2,0,0,0,0,.2C41.84,37.94,38.24,42,33.5,42Z"/></g></g></g></svg>