<svg id="Layer_1" data-name="Layer 1" xmlns="http://www.w3.org/2000/svg" viewBox="0 0 89.82 43.75"><defs><style>.cls-1{fill:none;stroke:#444545;stroke-miterlimit:10;}.cls-2{fill:#434343;}.cls-3{fill:#e0dedd;}</style></defs><circle class="cls-1" cx="12.41" cy="6.65" r="6.15"/><path class="cls-1" d="M-60.12,1.23h23.34S-37.51-9.32-48.3-9.32A11.73,11.73,0,0,0-60.12,1.23Z" transform="translate(60.7 22.2)"/><path class="cls-2" d="M2,12.74A6.2,6.2,0,0,0,4.7,14.65a17,17,0,0,0,5.51,1.19,34.55,34.55,0,0,0,4.55-.06,9.32,9.32,0,0,0,1.93-.45,13.09,13.09,0,0,0,3.48-1.5,4.49,4.49,0,0,0,1.21-1.09.25.25,0,0,0,0-.36,4.61,4.61,0,0,0-.51-.57,8.23,8.23,0,0,0-3.38-1.75A3.5,3.5,0,0,1,17,9.92a.54.54,0,0,1-.41-.65.51.51,0,0,1,.69-.33A11.87,11.87,0,0,1,20,10a8.43,8.43,0,0,1,1.88,1.38A2.22,2.22,0,0,0,21.3,9.7a6,6,0,0,0-1.61-1.26.55.55,0,0,1-.29-.56.5.5,0,0,1,.43-.42.57.57,0,0,1,.34.07A5.83,5.83,0,0,1,22.62,9.9a3,3,0,0,1,.14,2.51c-.66,1.81-1.32,3.61-2,5.4a3.85,3.85,0,0,1-1.52,1.77,10.92,10.92,0,0,1-3.86,1.57,16.81,16.81,0,0,1-5.83.25,12,12,0,0,1-5.2-1.66A4.38,4.38,0,0,1,2.42,17.4c-.52-1.55-1.08-3.08-1.7-4.59a3.41,3.41,0,0,1,1-4.16A10,10,0,0,1,5.51,6.53a14.46,14.46,0,0,1,3.31-.7.49.49,0,0,1,.59.44.54.54,0,0,1-.52.57,15,15,0,0,0-5.12,1.5A5.33,5.33,0,0,0,1.89,9.86a2.46,2.46,0,0,0-.49,1.56c.21-.19.38-.35.56-.49A10.57,10.57,0,0,1,5.18,9.2a.51.51,0,1,1,.31,1,10.62,10.62,0,0,0-2.28,1.09A4.43,4.43,0,0,0,2,12.3C2,12.44,1.87,12.58,2,12.74Z" transform="translate(60.7 22.2)"/><path class="cls-2" d="M9.62,12.79A6.51,6.51,0,0,1,8,12.61a1.72,1.72,0,0,1-1.27-2.55,9.35,9.35,0,0,1,.78-1.74A3.88,3.88,0,0,1,8.74,7.26c.92-.57,2-.85,2.89-1.41a7.68,7.68,0,0,0,.78-.6.46.46,0,0,1,.67,0,5.63,5.63,0,0,1,.88.88.38.38,0,0,0,.41.17,3.15,3.15,0,0,0,1-.28A47.75,47.75,0,0,0,22.69,1.7a13.13,13.13,0,0,1,2-1.24A4.14,4.14,0,0,1,28.32.39,1.15,1.15,0,0,1,29,2a3.93,3.93,0,0,1-2.48,2.63c-1.95.78-3.93,1.53-5.89,2.3-1.34.52-2.66,1.09-4,1.67a2.49,2.49,0,0,0-1.08.87,9.85,9.85,0,0,1-1.25,1.62A6.68,6.68,0,0,1,11,12.62,10,10,0,0,1,9.62,12.79Z" transform="translate(60.7 22.2)"/><path class="cls-3" d="M2,12.74c-.24-.18-.08-.31.06-.44Z" transform="translate(60.7 22.2)"/></svg>