<svg id="Layer_1" data-name="Layer 1" xmlns="http://www.w3.org/2000/svg" xmlns:xlink="http://www.w3.org/1999/xlink" viewBox="0 0 127.38 51.52"><defs><style>.cls-1{fill:none;}.cls-2{clip-path:url(#clip-path);}.cls-3{fill:#7da150;}.cls-4{font-size:19.16px;font-family:Garamond-Antiqua, Garamond Antiqua;}.cls-4,.cls-5{fill:#2c482b;}.cls-5{font-size:7.51px;font-family:CaviarDreams;}.cls-6{letter-spacing:-0.01em;}.cls-7{letter-spacing:-0.01em;}</style><clipPath id="clip-path" transform="translate(-0.2 -0.27)"><rect class="cls-1" x="-95.02" y="-254.93" width="595.28" height="841.89"/></clipPath></defs><g class="cls-2"><g class="cls-2"><path class="cls-3" d="M19.56,49.94S1.4,51,.23,29.91c0,0,3.05,1.4,3.16,2,0,0,.24-3.16-3.16-6.91,0,0-.47-5.74,2.23-16.06,0,0,27.88,12.54,20.15,38.2,0,0-3.63-14.63-7.62-17.68,0,0,5.16,10.3,4.57,20.49" transform="translate(-0.2 -0.27)"/><path class="cls-3" d="M18.51,18.78S8.55,14.09,11.6.27c0,0,9.2,5,6.91,18.51" transform="translate(-0.2 -0.27)"/><path class="cls-3" d="M32.1,23.11a7.08,7.08,0,0,1,6-7.5s0,6.68-6,7.5" transform="translate(-0.2 -0.27)"/><path class="cls-3" d="M24,50s10.82-3.29,11.36-12.42H32.09l4-2.47s1.88-7.38,0-10.42c0,0-6.89.24-11.76,4.92a30.12,30.12,0,0,1,1.38,6,26,26,0,0,0,4.38-4.37s-3.19,5.62-4.66,6.1c0,0-.22,11.14-1.46,12.65" transform="translate(-0.2 -0.27)"/><path class="cls-3" d="M23.36,26.27s13.08-2.34,4.17-19.5c0,0-11,8-4.92,18.34A64.81,64.81,0,0,1,24.31,16a37.6,37.6,0,0,1-.95,10.3" transform="translate(-0.2 -0.27)"/></g><text class="cls-4" transform="translate(37.81 38.73)">ÇATALCALI</text><text class="cls-5" transform="translate(55.58 49.64)">or<tspan class="cls-6" x="6.58" y="0">g</tspan><tspan x="10.72" y="0">anik </tspan><tspan class="cls-7" x="25.37" y="0">v</tspan><tspan x="28.92" y="0">e doğal gıda</tspan></text></g></svg>