<svg id="Layer_1" data-name="Layer 1" xmlns="http://www.w3.org/2000/svg" viewBox="0 0 24.62 24.95"><defs><style>.cls-1{fill:none;stroke:#fff;stroke-miterlimit:10;}</style></defs><path class="cls-1" d="M11.83,9.29s-10.59.59-11,3.94c0,0-1.87,4.74,3.36,5.5A4.67,4.67,0,0,0,8,16.8S10.79,10,11.69,9.51a17.63,17.63,0,0,1,1.78.05A31.36,31.36,0,0,1,22,11.35s4,2.16,1.11,6.47a4.25,4.25,0,0,1-5.63-.35,37.82,37.82,0,0,1-3.9-7.69" transform="translate(0 0)"/><path class="cls-1" d="M10,9.29a2.94,2.94,0,0,1,.16-4.41,3.38,3.38,0,0,1,4.51,0,3.65,3.65,0,0,1,.24,4.41" transform="translate(0 0)"/><path class="cls-1" d="M7.64,17.25s.11,6.11,4.59,7.2c0,0,4,.22,4.72-7.2" transform="translate(0 0)"/><path class="cls-1" d="M8.36,17.46s3.47-3.26,7.93,0" transform="translate(0 0)"/><path class="cls-1" d="M8.5,20.65s3.47-3.26,7.93,0" transform="translate(0 0)"/><path class="cls-1" d="M9.37,13.59a6,6,0,0,1,5.85,0" transform="translate(0 0)"/><path class="cls-1" d="M11.72,4.08a3.48,3.48,0,0,0-1.59-2.67" transform="translate(0 0)"/><path class="cls-1" d="M13.2,4a2.85,2.85,0,0,1,1.13-2.6" transform="translate(0 0)"/><ellipse class="cls-1" cx="9.42" cy="1.19" rx="0.73" ry="0.69"/><ellipse class="cls-1" cx="15.21" cy="1.19" rx="0.73" ry="0.69"/><path class="cls-1" d="M19.48,11.9A3.8,3.8,0,0,1,22.74,15" transform="translate(0 0)"/><path class="cls-1" d="M1.91,15s-.18-2.11,2.94-3.13" transform="translate(0 0)"/></svg>