<svg id="Layer_1" data-name="Layer 1" xmlns="http://www.w3.org/2000/svg" viewBox="0 0 32.8 24.35"><defs><style>.cls-1{fill:none;}.cls-1,.cls-2{stroke:#fff;stroke-miterlimit:10;}.cls-2{fill:#4c4947;}</style></defs><path class="cls-1" d="M3.3,14.16s-4.48-.57-2.11-3.64c0,0,5.88-11.14,22.2-9.92,0,0,2.5.7,2.3,2.24,0,0,3,.06,3.27,2.62,0,0-.19,2.3-.71,2.3" transform="translate(0 -0.01)"/><path class="cls-1" d="M25.69,2.84A28.73,28.73,0,0,0,8.29,9.17s-6.66,5.51-6.91,8.9c0,0-1.35,3.58,4.61,3.07,0,0,2.56-.07,2.94-.45" transform="translate(0 -0.01)"/><path class="cls-1" d="M4.78,6.24A16.75,16.75,0,0,0,8.69,8.65" transform="translate(0 -0.01)"/><path class="cls-1" d="M6.17,5.1S9.94,8,10,7.9" transform="translate(0 -0.01)"/><path class="cls-1" d="M10.13,2.83a11,11,0,0,0,3.11,2.89" transform="translate(0 -0.01)"/><line class="cls-1" x1="11.69" y1="2.08" x2="14.95" y2="5.09"/><path class="cls-1" d="M15.62,1s2.77,2.5,3.81,2.61" transform="translate(0 -0.01)"/><path class="cls-1" d="M18,.65S21.21,3,21.33,3.25" transform="translate(0 -0.01)"/><path class="cls-1" d="M19.73,3.6A23.25,23.25,0,0,0,24,6.24s.55,1.51-2.78.67c0,0-4.24-2-4.27-2.5" transform="translate(0 -0.01)"/><path class="cls-1" d="M12.74,6.27S16.42,9,16.62,9.1" transform="translate(0 -0.01)"/><path class="cls-1" d="M10.84,7.44s2,1.52,4,2.74" transform="translate(0 -0.01)"/><line class="cls-1" x1="6.8" y1="10.49" x2="8.52" y2="11.49"/><line class="cls-1" x1="5.43" y1="12" x2="7.28" y2="12.92"/><path class="cls-1" d="M15.38,22.1,10.7,23.4a2.35,2.35,0,0,1-1.19-1.76s-.5-2.74-1.15-3c0,0-2.25-.5-1.62-4,0,0,1.18-5.86,7.56-4.09a6,6,0,0,1,6.85-.76s4.17-4.26,8.63-.86c0,0,3.25,2,2.36,7a3.72,3.72,0,0,1-1.41,1.48,2.76,2.76,0,0,0-1.19,2.26s-.6,3.35-1.83,3.46c0,0-7.78-2.21-7.89-2.29l-.11-.09s-1-.31-.25-2.61c0,0,1.2-2.54.78-3.86,0,0-1.52-1.24.84-4.42" transform="translate(0 -0.01)"/><path class="cls-1" d="M14.19,10.73A5.9,5.9,0,0,0,12.74,17s-.16.53,1.78,1.83l1.55,4.57a1.34,1.34,0,0,0,1.5.36l5.87-1.86" transform="translate(0 -0.01)"/><circle class="cls-2" cx="15.01" cy="14.32" r="0.17"/><circle class="cls-2" cx="17.78" cy="20.82" r="0.17"/><circle class="cls-2" cx="27.66" cy="12.02" r="0.17"/><circle class="cls-2" cx="27.23" cy="17.13" r="0.17"/><circle class="cls-2" cx="16.98" cy="14.32" r="0.17"/><circle class="cls-2" cx="10.24" cy="15.48" r="0.17"/><circle class="cls-2" cx="11.52" cy="21.17" r="0.17"/><circle class="cls-2" cx="16.09" cy="17.83" r="0.17"/><circle class="cls-2" cx="27.23" cy="20.99" r="0.17"/><ellipse class="cls-2" cx="17.6" cy="12" rx="0.07" ry="0.15"/><ellipse class="cls-2" cx="17.45" cy="16.51" rx="0.07" ry="0.15"/><circle class="cls-2" cx="22.32" cy="16.66" r="0.15"/><ellipse class="cls-2" cx="24.93" cy="14.66" rx="0.07" ry="0.15"/><ellipse class="cls-2" cx="24.78" cy="19.17" rx="0.07" ry="0.15"/><ellipse class="cls-2" cx="25.28" cy="10.72" rx="0.07" ry="0.15"/><ellipse class="cls-2" cx="28.89" cy="14.64" rx="0.07" ry="0.15"/><ellipse class="cls-2" cx="8.48" cy="16.81" rx="0.07" ry="0.15"/><ellipse class="cls-2" cx="23.98" cy="16.36" rx="0.07" ry="0.15"/><ellipse class="cls-2" cx="10.06" cy="13.22" rx="0.07" ry="0.15"/><ellipse class="cls-2" cx="12.43" cy="19.17" rx="0.07" ry="0.15"/></svg>