<svg id="Capa_1" data-name="Capa 1" xmlns="http://www.w3.org/2000/svg" viewBox="0 0 512 442.19"><defs><style>.cls-1{fill:#fff;}</style></defs><path class="cls-1" d="M475.91,130.76,425,110a10,10,0,1,0-7.56,18.52h0l50.94,20.78a37.83,37.83,0,0,1,22.74,26.92h-138a54,54,0,0,0-106.12,0H20v-24C20,83.92,73.21,25.9,141.14,20.13a37.57,37.57,0,0,1,17.28,2.71l30.64,12.5a55.5,55.5,0,0,0,93.21,38l51.79,21.13A10,10,0,0,0,341.62,76L283.48,52.26A10,10,0,0,0,272,55.18,35.5,35.5,0,0,1,209,32.7a23.44,23.44,0,0,1,.15-3.16A10,10,0,0,0,203,19.4L166,4.32A57.54,57.54,0,0,0,139.45.2,152.48,152.48,0,0,0,0,152.2v232a58.07,58.07,0,0,0,58,58h73.37a10,10,0,0,0,8.73-5.12,40.63,40.63,0,0,1,71,0,10,10,0,0,0,8.73,5.12H454a58.07,58.07,0,0,0,58-58V347.47a10,10,0,0,0-10-10,34,34,0,0,1,0-68,10,10,0,0,0,10-10v-75a57.78,57.78,0,0,0-36.09-53.7ZM300,152.2a34,34,0,1,1-34,34h0A34,34,0,0,1,300,152.2ZM448,303.47a54.11,54.11,0,0,0,44,53.07V384.2a38,38,0,0,1-38,38H225.37a60.63,60.63,0,0,0-99.53,0H58a38,38,0,0,1-38-38V335.43a42,42,0,1,0,0-71.52V196.2H246.94a54,54,0,0,0,106.12,0H492v54.19A54.11,54.11,0,0,0,448,303.47Zm-428-3.8a22,22,0,1,1,22,22A22,22,0,0,1,20,299.67Z" transform="translate(0 -0.01)"/><path class="cls-1" d="M340.18,304.2a42,42,0,1,0,42,42h0A42,42,0,0,0,340.18,304.2Zm0,64a22,22,0,1,1,22-22A22,22,0,0,1,340.18,368.2Z" transform="translate(0 -0.01)"/><path class="cls-1" d="M111.67,68.2a42,42,0,1,0,42,42A42,42,0,0,0,111.67,68.2Zm0,64a22,22,0,1,1,22-22h0A22,22,0,0,1,111.67,132.2Z" transform="translate(0 -0.01)"/><path class="cls-1" d="M397.5,237.7a10,10,0,1,0,7.07,2.93A10,10,0,0,0,397.5,237.7Z" transform="translate(0 -0.01)"/><path class="cls-1" d="M207.65,311.67a10,10,0,1,0,7.07,2.93A10,10,0,0,0,207.65,311.67Z" transform="translate(0 -0.01)"/><path class="cls-1" d="M150,237.7a10,10,0,1,0,7.07,2.93A10,10,0,0,0,150,237.7Z" transform="translate(0 -0.01)"/><path class="cls-1" d="M379.52,112.23a10,10,0,1,0-7.07-2.93A10,10,0,0,0,379.52,112.23Z" transform="translate(0 -0.01)"/></svg>