<svg id="Layer_1" data-name="Layer 1" xmlns="http://www.w3.org/2000/svg" viewBox="0 0 31.45 23.89"><defs><style>.cls-1{fill:none;stroke:#fff;stroke-miterlimit:10;}</style></defs><path class="cls-1" d="M5.35,11.14s-5.25,1.22-4,4" transform="translate(-0.01 -0.12)"/><path class="cls-1" d="M9.27,7.59S-1.28,8.69.78,14.4c0,0,2.61,5.22,13.86,4.39,0,0,7.12-.38,9.23-4.39,0,0,1.55-3.23-2.54-5.18" transform="translate(-0.01 -0.12)"/><path class="cls-1" d="M1.15,14.94l1.77,5.34s2.34,3.19,8.92,3.19A14.81,14.81,0,0,0,21.18,21l2.69-6.6c-1.21-2.49-5.37-3.29-5.37-3.29" transform="translate(-0.01 -0.12)"/><path class="cls-1" d="M15.23,7.55a28.88,28.88,0,0,0,8.29-4.32S27.64-1,30.83,1.33c0,0,1.4,2.8-5.21,4.74,0,0-6.78,2.45-8.79,3.82,0,0-3.41,5.64-9.31,3.46C7.48,13.35,5.8,7.51,15.23,7.55Z" transform="translate(-0.01 -0.12)"/></svg>