<svg id="Layer_1" data-name="Layer 1" xmlns="http://www.w3.org/2000/svg" viewBox="0 0 23.46 22.2"><defs><style>.cls-1{fill:none;stroke:#fff;stroke-miterlimit:10;}</style></defs><path class="cls-1" d="M.73,11.17A147.9,147.9,0,0,1,22.87.86" transform="translate(0.42 0.01)"/><path class="cls-1" d="M15.5,3.5S4.37-1.62.5,1.5C.54,1.52,1,5.4,15.5,3.5Z" transform="translate(0.42 0.01)"/><line class="cls-1" x1="14.52" y1="3.31" x2="4.98" y2="2.03"/><path class="cls-1" d="M16,4s.13,13.35,4.23,15.22C20.24,19.25,23.53,17.42,16,4Z" transform="translate(0.42 0.01)"/><line class="cls-1" x1="16.42" y1="4.03" x2="19.68" y2="15.49"/><path class="cls-1" d="M6.82,8.06s-1.4,2-1.2,3.64" transform="translate(0.42 0.01)"/><line class="cls-1" x1="13.09" y1="5.09" x2="12.47" y2="7.42"/><path class="cls-1" d="M8.72,15.37c0,2.24-2.5,5.19-4.48,5.19s-3.39-1.82-3.59-4C.38,13.51,3.84,9.77,6,10.3,8,10.78,8.72,13.13,8.72,15.37Z" transform="translate(0.42 0.01)"/><path class="cls-1" d="M12.05,6.25s-3.49.38-4.3,4.92" transform="translate(0.42 0.01)"/><path class="cls-1" d="M12.67,6.37s4.58,1,1.9,7.64c0,0-2.28,4.23-5.85,1.78" transform="translate(0.42 0.01)"/><path class="cls-1" d="M3,17.94s.19,1.55,2,.81" transform="translate(0.42 0.01)"/><path class="cls-1" d="M9.73,13.94s.31,1.28,2.07.74" transform="translate(0.42 0.01)"/><path class="cls-1" d="M9.73,16.55s-.53,4.79,1.09,5.14c0,0,2,0,2.18-5.88" transform="translate(0.42 0.01)"/><line class="cls-1" x1="11.74" y1="16.81" x2="11.74" y2="17.89"/></svg>