<svg id="Layer_1" data-name="Layer 1" xmlns="http://www.w3.org/2000/svg" viewBox="0 0 31.45 23.89"><defs><style>.cls-1{fill:none;stroke:#fff;stroke-miterlimit:10;}</style></defs><path class="cls-1" d="M9.32,7.56S-1.22,8.66.83,14.37c0,0,2.62,5.22,13.87,4.39,0,0,7.11-.38,9.22-4.39,0,0,1.55-3.23-2.53-5.17" transform="translate(-0.07 -0.09)"/><path class="cls-1" d="M1.21,14.91,3,20.25s2.34,3.19,8.92,3.19a14.68,14.68,0,0,0,9.34-2.52l2.69-6.59c-1.2-2.5-5.37-3.3-5.37-3.3" transform="translate(-0.07 -0.09)"/><path class="cls-1" d="M15.29,7.53A29.1,29.1,0,0,0,23.57,3.2S27.69-1,30.89,1.3c0,0,1.39,2.8-5.22,4.74,0,0-6.78,2.45-8.79,3.83,0,0-3.4,5.63-9.3,3.46C7.53,13.33,5.85,7.48,15.29,7.53Z" transform="translate(-0.07 -0.09)"/></svg>